<?xml version="1.0" encoding="UTF-8"?>
<svg xmlns="http://www.w3.org/2000/svg" version="1.1" width="300" height="300" viewBox="0 0 300 300"><rect x="0" y="0" width="300" height="300" fill="#ffffff"/><g transform="scale(10.345)"><g transform="translate(0,0)"><path fill-rule="evenodd" d="M8 0L8 1L9 1L9 2L8 2L8 5L9 5L9 4L11 4L11 5L10 5L10 10L9 10L9 8L8 8L8 10L9 10L9 13L7 13L7 12L5 12L5 11L7 11L7 10L3 10L3 11L4 11L4 12L1 12L1 11L0 11L0 14L1 14L1 13L3 13L3 14L2 14L2 15L0 15L0 16L2 16L2 15L3 15L3 17L4 17L4 16L5 16L5 15L4 15L4 14L5 14L5 13L7 13L7 14L6 14L6 15L7 15L7 16L6 16L6 17L5 17L5 18L4 18L4 19L3 19L3 20L4 20L4 21L8 21L8 22L10 22L10 25L8 25L8 29L10 29L10 28L9 28L9 27L11 27L11 28L13 28L13 29L14 29L14 28L13 28L13 27L14 27L14 26L13 26L13 25L15 25L15 26L17 26L17 25L18 25L18 24L20 24L20 25L19 25L19 26L18 26L18 27L19 27L19 26L20 26L20 25L21 25L21 27L20 27L20 28L18 28L18 29L21 29L21 28L22 28L22 25L24 25L24 26L23 26L23 29L24 29L24 26L26 26L26 27L25 27L25 28L26 28L26 27L27 27L27 29L28 29L28 27L29 27L29 24L28 24L28 27L27 27L27 26L26 26L26 25L27 25L27 24L26 24L26 22L27 22L27 23L28 23L28 22L29 22L29 21L27 21L27 18L28 18L28 15L29 15L29 13L27 13L27 12L25 12L25 9L27 9L27 8L24 8L24 9L22 9L22 8L21 8L21 9L22 9L22 10L23 10L23 12L25 12L25 13L26 13L26 15L27 15L27 17L26 17L26 16L24 16L24 13L22 13L22 14L20 14L20 13L21 13L21 12L22 12L22 11L21 11L21 10L20 10L20 9L19 9L19 8L20 8L20 7L21 7L21 5L20 5L20 3L21 3L21 0L18 0L18 1L17 1L17 0L16 0L16 2L14 2L14 1L13 1L13 0L12 0L12 1L11 1L11 0L10 0L10 1L9 1L9 0ZM19 1L19 3L18 3L18 2L16 2L16 3L15 3L15 4L14 4L14 3L13 3L13 2L11 2L11 4L12 4L12 3L13 3L13 5L12 5L12 6L11 6L11 8L12 8L12 6L13 6L13 10L14 10L14 6L13 6L13 5L15 5L15 12L16 12L16 13L17 13L17 14L15 14L15 13L14 13L14 12L13 12L13 11L11 11L11 13L10 13L10 14L7 14L7 15L8 15L8 16L7 16L7 17L6 17L6 18L5 18L5 19L4 19L4 20L9 20L9 21L10 21L10 22L12 22L12 23L11 23L11 24L12 24L12 25L13 25L13 22L14 22L14 21L13 21L13 20L15 20L15 17L16 17L16 18L17 18L17 17L18 17L18 20L19 20L19 22L18 22L18 21L15 21L15 25L17 25L17 24L18 24L18 23L19 23L19 22L20 22L20 20L21 20L21 18L23 18L23 19L22 19L22 20L23 20L23 19L24 19L24 20L26 20L26 18L25 18L25 17L24 17L24 18L23 18L23 14L22 14L22 15L19 15L19 13L20 13L20 12L21 12L21 11L20 11L20 10L17 10L17 11L16 11L16 9L17 9L17 8L16 8L16 5L17 5L17 3L18 3L18 4L19 4L19 3L20 3L20 1ZM15 4L15 5L16 5L16 4ZM18 5L18 6L17 6L17 7L18 7L18 8L19 8L19 7L20 7L20 6L19 6L19 5ZM8 6L8 7L9 7L9 6ZM18 6L18 7L19 7L19 6ZM0 8L0 10L2 10L2 9L4 9L4 8ZM6 8L6 9L7 9L7 8ZM28 8L28 10L26 10L26 11L28 11L28 12L29 12L29 11L28 11L28 10L29 10L29 8ZM11 9L11 10L12 10L12 9ZM18 11L18 12L17 12L17 13L18 13L18 12L19 12L19 11ZM12 12L12 13L11 13L11 14L10 14L10 15L9 15L9 17L10 17L10 19L9 19L9 20L10 20L10 21L12 21L12 20L13 20L13 19L14 19L14 16L15 16L15 15L14 15L14 16L13 16L13 18L12 18L12 19L11 19L11 17L10 17L10 16L12 16L12 14L13 14L13 12ZM16 15L16 16L17 16L17 15ZM18 15L18 17L20 17L20 18L21 18L21 17L22 17L22 16L19 16L19 15ZM1 17L1 18L0 18L0 19L1 19L1 18L2 18L2 17ZM7 17L7 18L6 18L6 19L8 19L8 17ZM10 19L10 20L11 20L11 19ZM19 19L19 20L20 20L20 19ZM1 20L1 21L2 21L2 20ZM21 21L21 24L24 24L24 21ZM17 22L17 23L16 23L16 24L17 24L17 23L18 23L18 22ZM22 22L22 23L23 23L23 22ZM25 24L25 25L26 25L26 24ZM10 25L10 26L11 26L11 27L13 27L13 26L11 26L11 25ZM15 27L15 28L17 28L17 27ZM0 0L0 7L7 7L7 0ZM1 1L1 6L6 6L6 1ZM2 2L2 5L5 5L5 2ZM22 0L22 7L29 7L29 0ZM23 1L23 6L28 6L28 1ZM24 2L24 5L27 5L27 2ZM0 22L0 29L7 29L7 22ZM1 23L1 28L6 28L6 23ZM2 24L2 27L5 27L5 24Z" fill="#000000"/></g></g></svg>
